<svg xmlns="http://www.w3.org/2000/svg" width="225" height="225" viewBox="0 0 225 225">
<g>
<path d="M 116.25 206.25 C113.62,211.89 113.49,212.00 109.53,211.91 C102.06,211.75 80.61,206.79 79.48,204.96 C79.14,204.42 78.64,200.27 78.36,195.74 C78.09,191.21 77.71,187.05 77.54,186.50 C77.36,185.95 75.17,184.40 72.67,183.05 L 68.11 180.60 L 59.60 185.05 L 51.08 189.50 L 44.45 183.00 C40.80,179.43 35.57,173.20 32.83,169.17 L 27.84 161.85 L 40.18 146.82 L 37.73 141.16 C35.33,135.60 35.20,135.49 30.39,134.80 C27.70,134.42 23.61,133.58 21.31,132.94 C17.18,131.79 17.11,131.69 16.44,126.34 C15.68,120.31 16.27,97.40 17.20,96.47 C17.52,96.14 21.73,95.10 26.55,94.15 L 35.32 92.43 L 37.75 86.81 L 40.17 81.19 L 34.02 73.60 L 27.87 66.02 L 32.89 58.76 C35.66,54.77 40.83,48.62 44.39,45.10 C50.77,38.79 50.90,38.72 53.96,39.98 C55.67,40.69 59.54,42.76 62.56,44.58 L 68.05 47.89 L 73.03 44.79 C77.82,41.81 78.00,41.53 78.01,37.10 C78.01,34.57 78.29,30.20 78.63,27.38 L 79.25 22.27 L 88.37 20.06 C93.39,18.85 101.32,17.61 106.00,17.31 L 114.50 16.77 L 118.07 25.64 L 121.64 34.50 L 127.34 35.37 C132.87,36.21 133.09,36.15 135.24,33.37 C136.46,31.79 139.30,28.53 141.55,26.12 L 145.64 21.74 L 155.07 26.29 C167.04,32.05 176.00,38.41 176.00,41.14 C176.00,42.25 174.85,46.50 173.44,50.59 L 170.88 58.01 L 174.64 62.60 C178.14,66.87 178.65,67.15 181.95,66.58 C183.90,66.24 188.22,65.69 191.55,65.35 L 197.61 64.75 L 201.44 73.12 C205.37,81.71 209.00,92.93 209.00,96.50 C209.00,97.93 206.72,99.89 201.00,103.38 L 193.00 108.25 L 193.00 119.89 L 201.00 124.68 C206.76,128.14 209.00,130.04 209.00,131.49 C209.00,135.30 205.09,147.17 201.05,155.63 C198.96,160.00 198.25,162.21 196.76,163.09 C195.32,163.94 193.14,163.55 188.27,162.67 C187.18,162.48 185.95,162.25 184.57,162.02 C181.30,161.46 178.53,161.00 178.41,161.00 C178.29,161.00 176.40,163.14 174.22,165.75 L 170.25 170.50 L 173.10 177.50 C174.66,181.35 175.95,185.40 175.97,186.50 C176.02,189.61 165.52,197.07 152.59,203.11 L 145.67 206.34 L 141.23 201.42 C138.79,198.71 136.09,195.46 135.23,194.18 C133.82,192.08 133.19,191.92 128.59,192.54 C121.97,193.44 120.37,194.36 119.58,197.72 C119.22,199.25 117.72,203.09 116.25,206.25 ZM 95.50 196.63 C100.79,198.24 104.52,198.29 105.77,196.75 C106.33,196.06 107.76,192.24 108.94,188.25 L 111.08 181.00 L 116.88 181.00 C120.07,181.00 126.20,180.10 130.50,179.00 C134.80,177.90 138.39,177.00 138.47,177.00 C138.55,177.00 140.76,179.93 143.39,183.50 C146.01,187.07 148.59,190.00 149.12,190.00 C150.86,190.00 157.46,186.25 159.29,184.23 C161.03,182.31 161.00,182.06 158.64,176.87 C154.33,167.43 154.37,167.05 160.58,160.94 C163.61,157.95 167.47,153.36 169.15,150.75 C170.83,148.14 172.38,146.00 172.59,146.00 C172.80,146.00 176.41,146.94 180.61,148.09 C189.31,150.48 189.61,150.35 192.35,143.23 C195.12,136.06 194.79,135.38 186.75,131.40 L 179.50 127.81 L 179.50 100.11 L 184.43 97.80 C192.34,94.11 193.91,92.51 193.32,88.75 C193.04,86.96 192.20,84.04 191.46,82.25 C189.89,78.49 188.56,78.29 179.50,80.48 C176.20,81.28 173.23,81.94 172.89,81.96 C172.56,81.98 170.58,79.43 168.49,76.29 C166.40,73.15 162.52,68.45 159.85,65.86 L 155.01 61.14 L 158.07 53.47 C159.76,49.26 160.93,45.26 160.67,44.58 C160.41,43.90 157.71,42.05 154.67,40.45 C149.37,37.68 149.06,37.63 147.20,39.32 C146.14,40.28 143.74,43.30 141.88,46.03 C140.02,48.76 137.99,51.00 137.38,51.00 C136.76,51.00 134.44,50.36 132.22,49.58 C130.00,48.79 124.55,47.84 120.11,47.45 C115.67,47.06 111.64,46.24 111.16,45.62 C110.67,45.01 109.30,41.24 108.11,37.25 C106.92,33.26 105.44,30.00 104.84,30.00 C104.23,30.00 100.83,30.53 97.29,31.19 L 90.85 32.37 L 91.13 41.29 L 91.41 50.22 L 83.46 54.04 C79.08,56.15 73.96,59.17 72.07,60.77 L 68.64 63.66 L 61.62 59.33 C57.75,56.95 54.04,55.00 53.36,55.00 C52.27,55.00 46.50,61.43 44.59,64.77 C44.13,65.56 46.11,68.37 49.94,72.36 L 56.02 78.69 L 52.62 86.09 C50.75,90.17 48.90,95.07 48.51,97.00 C47.31,102.93 45.43,105.00 41.23,105.01 C36.57,105.01 29.74,106.85 28.77,108.36 C27.54,110.26 27.90,119.68 29.25,120.78 C29.94,121.35 32.75,122.10 35.50,122.45 C47.39,123.97 46.57,123.52 47.88,129.27 C48.54,132.14 50.59,137.88 52.43,142.00 L 55.78 149.50 L 49.84 155.72 C46.52,159.19 44.86,160.87 44.82,162.59 C44.79,164.27 46.32,165.98 49.38,169.42 C49.48,169.53 49.59,169.65 49.70,169.77 L 53.50 174.04 L 60.50 169.54 C64.35,167.07 67.98,165.04 68.57,165.03 C69.16,165.01 71.90,166.69 74.67,168.75 C77.44,170.81 82.50,173.84 85.93,175.47 L 92.16 178.44 L 91.83 186.92 L 91.50 195.40 ZM 124.07 151.41 C105.33,156.89 85.84,147.70 77.23,129.32 C74.86,124.26 74.50,122.25 74.50,114.00 C74.50,105.40 74.80,103.86 77.67,97.80 C91.60,68.41 133.88,67.67 148.11,96.57 C150.79,102.02 151.36,104.46 151.77,112.46 C152.25,121.65 152.17,122.10 148.78,129.25 C143.05,141.31 135.52,148.06 124.07,151.41 ZM 108.73 139.91 C116.63,141.76 125.36,138.56 132.10,131.34 C144.81,117.71 138.87,94.51 121.36,89.42 C104.49,84.51 88.81,94.96 87.25,112.16 C86.08,125.04 95.11,136.71 108.73,139.91 Z" fill="rgb(35,35,35)"/>
<path d="M 116.25 206.25 C117.72,203.09 119.22,199.25 119.58,197.72 C120.37,194.36 121.97,193.44 128.59,192.54 C133.19,191.92 133.82,192.08 135.23,194.18 C136.09,195.46 138.79,198.71 141.23,201.42 L 145.67 206.34 L 152.59 203.11 C164.08,197.74 173.65,191.25 175.60,187.69 C175.51,191.51 173.63,194.09 169.47,197.30 C166.73,199.41 160.86,202.97 156.40,205.21 C145.78,210.57 145.49,210.49 135.63,199.76 C133.33,197.25 132.65,197.07 127.43,197.51 C123.25,197.87 121.24,198.57 119.88,200.14 C118.13,202.16 116.02,207.95 116.01,210.75 C116.00,211.44 115.47,212.00 114.83,212.00 C114.19,212.00 113.95,212.28 114.29,212.62 C114.63,212.96 114.28,213.86 113.52,214.62 C111.97,216.17 105.85,216.26 99.00,214.81 C79.47,210.69 77.96,209.92 78.70,204.45 C78.98,202.36 78.74,201.00 78.08,201.00 C77.44,201.00 77.00,198.80 77.00,195.58 C77.00,190.51 76.79,190.03 73.63,188.08 C69.23,185.36 66.28,185.46 60.91,188.48 C52.74,193.08 52.09,193.22 48.64,191.07 C45.13,188.89 35.00,178.58 35.00,177.20 C35.00,176.71 33.91,175.04 32.57,173.49 C29.86,170.33 28.65,167.00 30.21,167.00 C30.77,167.00 30.47,165.85 29.55,164.44 C29.34,164.11 29.15,163.83 29.00,163.56 L 32.83 169.17 C35.57,173.20 40.80,179.43 44.45,183.00 L 51.08 189.50 L 59.60 185.05 L 68.11 180.60 L 72.67 183.05 C75.17,184.40 77.36,185.95 77.54,186.50 C77.71,187.05 78.09,191.21 78.36,195.74 C78.64,200.27 79.14,204.42 79.48,204.96 C80.61,206.79 102.06,211.75 109.53,211.91 C113.49,212.00 113.62,211.89 116.25,206.25 ZM 124.07 151.41 C135.52,148.06 143.05,141.31 148.78,129.25 C149.78,127.15 150.49,125.63 150.98,124.29 C150.46,128.90 149.47,131.79 147.85,133.88 C146.83,135.20 146.00,136.93 146.00,137.74 C146.00,140.50 137.51,150.00 135.04,150.00 C134.47,150.00 134.00,150.37 134.00,150.82 C134.00,151.81 125.61,155.66 121.75,156.44 C116.01,157.61 114.31,157.67 107.72,156.92 C100.48,156.11 94.55,153.33 86.56,147.00 C81.77,143.21 81.57,142.90 77.12,132.47 C74.36,126.01 74.14,124.60 74.31,114.97 C74.40,110.18 74.52,107.39 75.00,105.03 C74.57,107.23 74.50,109.75 74.50,114.00 C74.50,122.25 74.86,124.26 77.23,129.32 C85.84,147.70 105.33,156.89 124.07,151.41 ZM 109.07 40.29 C108.56,39.02 107.93,37.85 107.25,37.15 C105.35,35.19 98.52,34.54 95.02,35.99 C92.11,37.20 92.00,37.47 92.00,43.57 C92.00,52.44 90.87,54.30 83.14,58.10 C79.51,59.89 76.08,61.73 75.52,62.19 C74.96,62.66 73.42,63.93 72.10,65.02 C70.78,66.11 69.06,67.00 68.30,67.00 C66.72,67.00 59.31,63.15 57.23,61.25 C54.93,59.15 52.12,59.84 49.02,63.25 C47.39,65.04 46.05,66.80 46.03,67.17 C46.01,67.54 48.25,70.30 50.99,73.30 L 53.90 76.49 L 49.94 72.36 C46.11,68.37 44.13,65.56 44.59,64.77 C46.50,61.43 52.27,55.00 53.36,55.00 C54.04,55.00 57.75,56.95 61.62,59.33 L 68.64 63.66 L 72.07 60.77 C73.96,59.17 79.08,56.15 83.46,54.04 L 91.41 50.22 L 91.13 41.29 L 90.85 32.37 L 97.29 31.19 C100.83,30.53 104.23,30.00 104.84,30.00 C105.44,30.00 106.92,33.26 108.11,37.25 C108.42,38.30 108.75,39.33 109.07,40.29 ZM 159.37 49.98 C159.50,48.96 159.05,48.36 157.95,47.18 C156.88,46.02 154.19,44.54 151.97,43.87 C148.16,42.73 147.80,42.81 145.01,45.49 C143.39,47.04 142.28,48.65 142.54,49.06 C142.80,49.48 141.57,51.02 139.82,52.50 C137.48,54.47 135.96,55.02 134.07,54.59 C121.41,51.70 118.09,51.07 115.40,51.04 C112.19,51.00 107.42,47.09 109.64,46.31 C110.38,46.05 110.23,44.05 109.62,41.93 C110.29,43.84 110.87,45.26 111.16,45.62 C111.64,46.24 115.67,47.06 120.11,47.45 C124.55,47.84 130.00,48.79 132.22,49.58 C134.44,50.36 136.76,51.00 137.38,51.00 C137.99,51.00 140.02,48.76 141.88,46.03 C143.74,43.30 146.14,40.28 147.20,39.32 C149.06,37.63 149.37,37.68 154.67,40.45 C157.71,42.05 160.41,43.90 160.67,44.58 C160.85,45.06 160.31,47.24 159.37,49.98 ZM 87.28 111.88 C88.98,94.85 104.58,84.54 121.36,89.42 C131.35,92.32 137.57,101.11 138.71,110.66 C138.43,109.47 137.99,108.39 137.38,107.45 C134.85,103.60 127.05,96.00 125.62,96.00 C124.91,96.00 124.02,95.69 123.65,95.31 C122.46,94.13 115.61,92.03 112.87,92.02 C111.43,92.01 108.67,92.66 106.75,93.46 C104.83,94.26 103.00,94.67 102.69,94.35 C101.83,93.50 94.27,99.18 92.90,101.72 C92.24,102.93 91.39,103.74 91.01,103.51 C89.92,102.83 87.97,107.60 87.28,111.88 ZM 193.05 87.39 C192.47,86.07 188.84,83.93 186.16,83.41 C185.43,83.27 183.01,83.79 180.79,84.58 C174.76,86.70 172.30,86.39 170.29,83.25 C169.32,81.74 168.07,80.00 167.51,79.38 C166.96,78.77 164.50,75.90 162.06,73.01 C159.61,70.12 157.11,67.25 156.48,66.63 C155.86,66.01 155.22,65.05 155.05,64.50 C154.88,63.95 154.51,62.89 154.23,62.15 C153.94,61.41 154.14,60.51 154.68,60.15 C155.21,59.79 155.91,58.83 156.23,58.00 C156.43,57.50 156.85,56.48 157.34,55.30 L 155.01 61.14 L 159.85 65.86 C162.52,68.45 166.40,73.15 168.49,76.29 C170.58,79.43 172.56,81.98 172.89,81.96 C173.23,81.94 176.20,81.28 179.50,80.48 C188.56,78.29 189.89,78.49 191.46,82.25 C192.03,83.63 192.66,85.70 193.05,87.39 ZM 174.82 182.13 C174.34,180.70 173.74,179.08 173.10,177.50 L 170.25 170.50 L 174.22 165.75 C176.40,163.14 178.29,161.00 178.41,161.00 C178.53,161.00 181.30,161.46 184.57,162.02 C185.95,162.25 187.18,162.48 188.27,162.67 C193.14,163.55 195.32,163.94 196.76,163.09 C198.25,162.21 198.96,160.00 201.05,155.63 C203.26,151.00 205.43,145.35 206.95,140.56 C205.05,147.19 202.27,155.55 200.50,159.41 C199.12,162.41 198.00,165.35 198.00,165.94 C198.00,166.52 197.66,167.03 197.25,167.08 C196.84,167.12 195.60,167.33 194.50,167.54 C193.40,167.75 189.59,167.47 186.03,166.91 C179.87,165.94 174.05,166.39 175.39,167.72 C175.74,168.07 175.11,169.32 173.99,170.51 L 171.96 172.67 L 174.06 179.44 C174.35,180.40 174.60,181.29 174.82,182.13 ZM 31.90 156.90 C32.34,156.35 32.83,155.74 33.38,155.07 L 38.88 148.26 L 36.86 144.18 C35.00,140.43 34.40,140.02 29.17,139.00 C21.06,137.41 17.95,136.00 16.99,133.48 C16.75,132.84 16.57,130.19 16.47,126.58 C17.11,131.70 17.24,131.81 21.31,132.94 C23.61,133.58 27.70,134.42 30.39,134.80 C35.20,135.49 35.33,135.60 37.73,141.16 L 40.18 146.82 ZM 47.65 100.25 C47.22,101.97 46.88,103.62 46.65,105.13 C46.22,107.97 44.85,108.83 39.75,109.46 C32.88,110.31 30.34,110.52 29.48,111.84 C28.97,112.61 29.04,113.76 29.16,115.64 C29.17,115.86 29.19,116.09 29.20,116.34 L 29.47 120.93 C29.38,120.88 29.31,120.83 29.25,120.78 C27.90,119.68 27.54,110.26 28.77,108.36 C29.74,106.85 36.57,105.01 41.23,105.01 C44.54,105.00 46.41,103.71 47.65,100.25 ZM 192.99 141.53 C193.00,141.49 193.00,141.45 193.00,141.42 C193.00,140.31 187.01,135.83 184.35,134.95 C182.29,134.27 180.63,132.74 179.59,130.55 C177.74,126.64 177.51,123.00 179.13,123.00 C179.27,123.00 179.39,122.89 179.50,122.66 L 179.50 127.81 L 186.75 131.40 C194.10,135.03 195.00,135.92 192.99,141.53 ZM 208.69 97.48 C208.67,97.80 208.63,98.09 208.58,98.35 C207.91,101.68 203.44,107.00 201.31,107.00 C200.59,107.00 200.00,107.40 200.00,107.88 C200.00,108.36 198.65,109.32 197.00,110.00 C195.35,110.68 194.00,111.81 194.00,112.50 C194.00,113.19 193.73,115.10 193.40,116.76 C192.82,119.64 193.14,119.97 200.90,124.62 L 193.00 119.89 L 193.00 108.25 L 201.00 103.38 C205.52,100.62 207.89,98.82 208.69,97.48 ZM 36.60 89.46 C37.36,86.76 37.88,81.79 37.16,82.51 C36.40,83.27 29.82,72.81 28.82,69.24 C28.55,68.29 28.41,67.55 28.48,66.77 L 34.02 73.60 L 40.17 81.19 L 37.75 86.81 ZM 54.98 150.34 C54.94,150.49 54.88,150.61 54.80,150.71 C54.27,151.37 54.06,152.29 54.34,152.74 C54.62,153.20 53.48,155.13 51.80,157.03 C45.41,164.30 45.32,164.46 49.33,169.36 C46.30,165.96 44.79,164.26 44.82,162.59 C44.86,160.87 46.52,159.19 49.84,155.72 ZM 35.93 91.01 L 35.32 92.43 L 26.55 94.15 C31.93,93.09 34.99,92.07 35.93,91.01 ZM 108.73 139.91 C100.56,137.99 94.04,133.02 90.39,126.58 C94.17,132.99 100.82,138.05 108.73,139.91 ZM 120.39 75.91 C104.00,73.08 85.90,80.45 77.67,97.80 C85.92,80.39 104.00,73.04 120.39,75.91 ZM 151.32 106.66 C150.85,102.82 150.03,100.48 148.17,96.69 C148.18,96.71 148.19,96.74 148.21,96.77 C150.29,101.00 151.05,102.88 151.32,106.66 ZM 55.92 78.90 L 52.62 86.13 C50.98,89.71 49.54,93.59 48.45,97.30 C48.47,97.20 48.49,97.10 48.51,97.00 C48.90,95.07 50.75,90.17 52.62,86.09 ZM 62.38 168.36 C62.97,167.98 63.51,167.62 63.98,167.31 C65.90,166.04 67.95,165.00 68.55,165.00 C69.09,165.00 71.41,166.39 73.90,168.19 C71.41,166.39 69.10,165.01 68.57,165.03 C68.08,165.04 65.47,166.46 62.38,168.36 ZM 184.43 97.80 L 181.43 99.21 L 185.21 97.40 C189.16,95.51 191.58,93.95 192.70,92.52 C191.61,94.14 189.15,95.60 184.43,97.80 ZM 137.00 123.69 C135.89,126.42 134.26,129.02 132.10,131.34 C129.33,134.31 126.22,136.60 122.96,138.14 C125.83,136.76 128.62,134.76 131.28,132.17 C133.72,129.80 135.66,126.82 137.00,123.69 ZM 53.40 173.92 L 56.84 171.84 C57.45,171.47 58.17,171.03 58.93,170.55 L 53.50 174.04 ZM 201.44 73.12 L 197.61 64.75 L 201.44 73.12 C203.59,77.81 205.36,82.41 206.61,86.45 C205.22,82.18 203.37,77.34 201.44,73.12 ZM 32.79 121.98 L 35.00 122.31 C36.17,122.48 37.46,122.67 38.71,122.86 C37.76,122.73 36.69,122.60 35.50,122.45 C34.58,122.33 33.65,122.17 32.79,121.98 ZM 189.87 148.37 C190.42,147.49 191.08,146.22 191.66,145.00 C191.03,146.56 190.50,147.65 189.87,148.37 ZM 43.35 123.54 L 43.59 123.58 C45.08,123.80 45.90,124.05 46.49,124.94 C45.92,124.26 45.02,123.87 43.35,123.54 ZM 179.50 103.36 L 179.38 100.19 L 179.50 100.13 ZM 193.43 90.17 C193.33,89.52 193.21,88.49 193.14,87.79 C193.21,88.13 193.27,88.45 193.32,88.75 C193.40,89.26 193.44,89.73 193.43,90.17 ZM 208.37 130.05 C207.48,128.93 205.60,127.51 202.41,125.54 C205.67,127.56 207.51,128.93 208.37,130.05 ZM 16.89 97.62 C16.97,97.00 17.05,96.61 17.14,96.52 C17.15,96.51 17.16,96.50 17.18,96.50 C17.08,96.63 16.98,97.02 16.89,97.62 ZM 44.39 45.10 C40.84,48.61 35.68,54.74 32.91,58.74 C35.67,54.76 40.83,48.62 44.39,45.10 ZM 208.99 131.93 C208.99,131.80 209.00,131.68 209.00,131.57 C209.00,131.58 209.00,131.60 209.00,131.61 C209.00,131.70 209.00,131.81 208.99,131.93 ZM 24.99 94.47 C25.48,94.37 25.97,94.27 26.48,94.17 C25.97,94.27 25.48,94.37 24.99,94.47 Z" fill="rgb(195,195,195)"/>
<path d="M 0.00 112.50 L 0.00 0.00 L 112.50 0.00 L 225.00 0.00 L 225.00 112.50 L 225.00 225.00 L 112.50 225.00 L 0.00 225.00 L 0.00 112.50 ZM 113.52 214.62 C114.28,213.86 114.63,212.96 114.29,212.62 C113.95,212.28 114.19,212.00 114.83,212.00 C115.47,212.00 116.00,211.44 116.01,210.75 C116.02,207.95 118.13,202.16 119.88,200.14 C121.24,198.57 123.25,197.87 127.43,197.51 C132.65,197.07 133.33,197.25 135.63,199.76 C145.49,210.49 145.78,210.57 156.40,205.21 C160.86,202.97 166.73,199.41 169.47,197.30 C176.04,192.23 176.93,188.75 174.06,179.44 L 171.96 172.67 L 173.99 170.51 C175.11,169.32 175.74,168.07 175.39,167.72 C174.05,166.39 179.87,165.94 186.03,166.91 C189.59,167.47 193.40,167.75 194.50,167.54 C195.60,167.33 196.84,167.12 197.25,167.08 C197.66,167.03 198.00,166.52 198.00,165.94 C198.00,165.35 199.12,162.41 200.50,159.41 C203.39,153.09 209.00,134.74 209.00,131.61 C209.00,130.01 206.98,128.27 200.90,124.62 C193.14,119.97 192.82,119.64 193.40,116.76 C193.73,115.10 194.00,113.19 194.00,112.50 C194.00,111.81 195.35,110.68 197.00,110.00 C198.65,109.32 200.00,108.36 200.00,107.88 C200.00,107.40 200.59,107.00 201.31,107.00 C203.44,107.00 207.91,101.68 208.58,98.35 C209.37,94.41 206.43,84.00 201.44,73.12 L 197.61 64.75 L 191.55 65.35 C188.22,65.69 183.90,66.24 181.95,66.58 C178.65,67.15 178.14,66.87 174.64,62.60 L 170.88 58.01 L 173.44 50.59 C174.85,46.50 176.00,42.25 176.00,41.14 C176.00,38.41 167.04,32.05 155.07,26.29 L 145.64 21.74 L 141.55 26.12 C139.30,28.53 136.46,31.79 135.24,33.37 C133.09,36.15 132.87,36.21 127.34,35.37 L 121.64 34.50 L 118.07 25.64 L 114.50 16.77 L 106.00 17.31 C101.32,17.61 93.39,18.85 88.37,20.06 L 79.25 22.27 L 78.63 27.38 C78.29,30.20 78.01,34.57 78.01,37.10 C78.00,41.53 77.82,41.81 73.03,44.79 L 68.05 47.89 L 62.56 44.58 C59.54,42.76 55.67,40.69 53.96,39.98 C50.90,38.72 50.77,38.79 44.39,45.10 C40.83,48.62 35.67,54.76 32.91,58.74 C28.35,65.33 27.98,66.27 28.82,69.24 C29.82,72.81 36.40,83.27 37.16,82.51 C38.02,81.64 37.10,89.00 36.12,90.74 C35.48,91.90 32.35,93.01 26.48,94.17 C21.70,95.11 17.50,96.17 17.14,96.52 C16.17,97.50 16.03,130.95 16.99,133.48 C17.95,136.00 21.06,137.41 29.17,139.00 C34.40,140.02 35.00,140.43 36.86,144.18 L 38.88 148.26 L 33.38 155.07 C27.94,161.80 27.89,161.91 29.55,164.44 C30.47,165.85 30.77,167.00 30.21,167.00 C28.65,167.00 29.86,170.33 32.57,173.49 C33.91,175.04 35.00,176.71 35.00,177.20 C35.00,178.58 45.13,188.89 48.64,191.07 C52.09,193.22 52.74,193.08 60.91,188.48 C66.28,185.46 69.23,185.36 73.63,188.08 C76.79,190.03 77.00,190.51 77.00,195.58 C77.00,198.80 77.44,201.00 78.08,201.00 C78.74,201.00 78.98,202.36 78.70,204.45 C77.96,209.92 79.47,210.69 99.00,214.81 C105.85,216.26 111.97,216.17 113.52,214.62 ZM 95.50 196.63 L 91.50 195.40 L 91.83 186.92 L 92.16 178.44 L 85.93 175.47 C82.50,173.84 77.44,170.81 74.67,168.75 C71.90,166.69 69.15,165.00 68.55,165.00 C67.95,165.00 65.90,166.04 63.98,167.31 C62.07,168.59 58.85,170.62 56.84,171.84 L 53.18 174.05 L 49.47 169.53 C45.32,164.47 45.34,164.38 51.80,157.03 C53.48,155.13 54.62,153.20 54.34,152.74 C54.06,152.29 54.27,151.37 54.80,150.71 C55.47,149.88 54.71,147.12 52.43,142.00 C50.59,137.88 48.54,132.14 47.88,129.27 C46.80,124.51 46.40,123.99 43.59,123.58 C41.89,123.32 38.03,122.75 35.00,122.31 L 29.50 121.50 L 29.20 116.34 C28.86,110.54 28.38,110.86 39.75,109.46 C44.85,108.83 46.22,107.97 46.65,105.13 C47.48,99.63 49.75,92.40 52.62,86.13 L 55.98 78.76 L 50.99 73.30 C48.25,70.30 46.01,67.54 46.03,67.17 C46.05,66.80 47.39,65.04 49.02,63.25 C52.12,59.84 54.93,59.15 57.23,61.25 C59.31,63.15 66.72,67.00 68.30,67.00 C69.06,67.00 70.78,66.11 72.10,65.02 C73.42,63.93 74.96,62.66 75.52,62.19 C76.08,61.73 79.51,59.89 83.14,58.10 C90.87,54.30 92.00,52.44 92.00,43.57 C92.00,37.47 92.11,37.20 95.02,35.99 C98.52,34.54 105.35,35.19 107.25,37.15 C109.31,39.28 111.02,45.82 109.64,46.31 C107.42,47.09 112.19,51.00 115.40,51.04 C118.09,51.07 121.41,51.70 134.07,54.59 C135.96,55.02 137.48,54.47 139.82,52.50 C141.57,51.02 142.80,49.48 142.54,49.06 C142.28,48.65 143.39,47.04 145.01,45.49 C147.80,42.81 148.16,42.73 151.97,43.87 C154.19,44.54 156.88,46.02 157.95,47.18 C159.79,49.15 159.81,49.51 158.36,52.89 C157.51,54.88 156.55,57.17 156.23,58.00 C155.91,58.83 155.21,59.79 154.68,60.15 C154.14,60.51 153.94,61.41 154.23,62.15 C154.51,62.89 154.88,63.95 155.05,64.50 C155.22,65.05 155.86,66.01 156.48,66.63 C157.11,67.25 159.61,70.12 162.06,73.01 C164.50,75.90 166.96,78.77 167.51,79.38 C168.07,80.00 169.32,81.74 170.29,83.25 C172.30,86.39 174.76,86.70 180.79,84.58 C183.01,83.79 185.43,83.27 186.16,83.41 C189.04,83.97 193.01,86.39 193.12,87.66 C193.19,88.40 193.33,89.56 193.44,90.25 C193.76,92.36 191.30,94.49 185.21,97.40 L 179.38 100.19 L 179.82 111.59 C180.12,119.64 179.92,123.00 179.13,123.00 C177.51,123.00 177.74,126.64 179.59,130.55 C180.63,132.74 182.29,134.27 184.35,134.95 C187.01,135.83 193.00,140.31 193.00,141.42 C193.00,142.60 189.85,148.97 189.01,149.49 C188.45,149.84 184.62,149.19 180.49,148.06 C176.36,146.93 172.80,146.00 172.59,146.00 C172.38,146.00 170.83,148.14 169.15,150.75 C167.47,153.36 163.61,157.95 160.58,160.94 C154.37,167.05 154.33,167.43 158.64,176.87 C161.00,182.06 161.03,182.31 159.29,184.23 C157.46,186.25 150.86,190.00 149.12,190.00 C148.59,190.00 146.01,187.07 143.39,183.50 C140.76,179.93 138.55,177.00 138.47,177.00 C138.39,177.00 134.80,177.90 130.50,179.00 C126.20,180.10 120.07,181.00 116.88,181.00 L 111.08 181.00 L 108.94 188.25 C107.76,192.24 106.33,196.06 105.77,196.75 C104.52,198.29 100.79,198.24 95.50,196.63 ZM 121.75 156.44 C125.61,155.66 134.00,151.81 134.00,150.82 C134.00,150.37 134.47,150.00 135.04,150.00 C137.51,150.00 146.00,140.50 146.00,137.74 C146.00,136.93 146.83,135.20 147.85,133.88 C150.47,130.49 151.45,124.98 151.46,113.45 C151.47,104.11 151.24,102.93 148.21,96.77 C133.88,67.67 91.65,68.29 77.67,97.80 C74.80,103.86 74.48,105.49 74.31,114.97 C74.14,124.60 74.36,126.01 77.12,132.47 C81.57,142.90 81.77,143.21 86.56,147.00 C94.55,153.33 100.48,156.11 107.72,156.92 C114.31,157.67 116.01,157.61 121.75,156.44 ZM 108.73 139.91 C96.36,137.00 87.08,126.26 87.02,114.78 C87.00,110.17 89.66,102.67 91.01,103.51 C91.39,103.74 92.24,102.93 92.90,101.72 C94.27,99.18 101.83,93.50 102.69,94.35 C103.00,94.67 104.83,94.26 106.75,93.46 C108.67,92.66 111.43,92.01 112.87,92.02 C115.61,92.03 122.46,94.13 123.65,95.31 C124.02,95.69 124.91,96.00 125.62,96.00 C127.05,96.00 134.85,103.60 137.38,107.45 C141.26,113.38 138.32,125.32 131.28,132.17 C124.29,138.98 116.36,141.70 108.73,139.91 Z" fill="rgb(253,253,253)"/>
</g>
</svg>